HIERARCHY
ROOT Hips
{
  OFFSET 5.72205e-005 65.662 3.42586
  CHANNELS 6 Xposition Yposition Zposition Zrotation Xrotation Yrotation
  JOINT Chest
  {
    OFFSET 0 8.7983 -4.7612
    CHANNELS 6 Xposition Yposition Zposition Zrotation Xrotation Yrotation
    JOINT Chest2
    {
      OFFSET 0 8.0291 0.4195
      CHANNELS 6 Xposition Yposition Zposition Zrotation Xrotation Yrotation
      JOINT Chest3
      {
        OFFSET 0 9.9351 -2.2114
        CHANNELS 6 Xposition Yposition Zposition Zrotation Xrotation Yrotation
        JOINT Neck
        {
          OFFSET 0 22.3885 -0.4656
          CHANNELS 6 Xposition Yposition Zposition Zrotation Xrotation Yrotation
          JOINT Head
          {
            OFFSET -0.0001 12.643 3.4389
            CHANNELS 6 Xposition Yposition Zposition Zrotation Xrotation Yrotation
            End Site
            {
              OFFSET 0.0001 17.6655 0.5274
            }
          }
        }
        JOINT LeftCollar
        {
          OFFSET 2.2603 21.606 7.4023
          CHANNELS 6 Xposition Yposition Zposition Zrotation Xrotation Yrotation
          JOINT LeftShoulder
          {
            OFFSET 13.5163 -1.1332 -5.0146
            CHANNELS 6 Xposition Yposition Zposition Zrotation Xrotation Yrotation
            JOINT LeftElbow
            {
              OFFSET -0.0995 -28.05 -0.2431
              CHANNELS 6 Xposition Yposition Zposition Zrotation Xrotation Yrotation
              JOINT LeftWrist
              {
                OFFSET 0.0679 -23.3996 -0.1402
                CHANNELS 6 Xposition Yposition Zposition Zrotation Xrotation Yrotation
                JOINT LeftFinger1
                {
                  OFFSET 0.7932 -9.069 2.5189
                  CHANNELS 6 Xposition Yposition Zposition Zrotation Xrotation Yrotation
                  JOINT LeftFinger11
                  {
                    OFFSET -0.8272 -3.3923 0.5977
                    CHANNELS 6 Xposition Yposition Zposition Zrotation Xrotation Yrotation
                    JOINT LeftFinger12
                    {
                      OFFSET -0.5649 -2.3158 0.4082
                      CHANNELS 6 Xposition Yposition Zposition Zrotation Xrotation Yrotation
                      End Site
                      {
                        OFFSET -0.4919 -1.6479 0.2673
                      }
                    }
                  }
                }
                JOINT LeftFinger2
                {
                  OFFSET 0.9159 -9.2044 0.2193
                  CHANNELS 6 Xposition Yposition Zposition Zrotation Xrotation Yrotation
                  JOINT LeftFinger21
                  {
                    OFFSET 0.0117 -4.1944 -0.0248
                    CHANNELS 6 Xposition Yposition Zposition Zrotation Xrotation Yrotation
                    JOINT LeftFinger22
                    {
                      OFFSET 0.0071 -2.3249 -0.0142
                      CHANNELS 6 Xposition Yposition Zposition Zrotation Xrotation Yrotation
                      End Site
                      {
                        OFFSET -0.1475 -2.0882 0.0028
                      }
                    }
                  }
                }
                JOINT LeftFinger3
                {
                  OFFSET 0.6113 -8.7231 -2.0637
                  CHANNELS 6 Xposition Yposition Zposition Zrotation Xrotation Yrotation
                  JOINT LeftFinger31
                  {
                    OFFSET -0.1927 -3.8059 -0.2383
                    CHANNELS 6 Xposition Yposition Zposition Zrotation Xrotation Yrotation
                    JOINT LeftFinger32
                    {
                      OFFSET -0.1091 -2.1688 -0.1362
                      CHANNELS 6 Xposition Yposition Zposition Zrotation Xrotation Yrotation
                      End Site
                      {
                        OFFSET -0.2358 -1.9176 -0.0906
                      }
                    }
                  }
                }
                JOINT LeftFinger4
                {
                  OFFSET -0.6151 -8.0947 -3.5641
                  CHANNELS 6 Xposition Yposition Zposition Zrotation Xrotation Yrotation
                  JOINT LeftFinger41
                  {
                    OFFSET -0.4882 -2.341 -0.6462
                    CHANNELS 6 Xposition Yposition Zposition Zrotation Xrotation Yrotation
                    JOINT LeftFinger42
                    {
                      OFFSET -0.3575 -1.7167 -0.4742
                      CHANNELS 6 Xposition Yposition Zposition Zrotation Xrotation Yrotation
                      End Site
                      {
                        OFFSET -0.4187 -1.5237 -0.3496
                      }
                    }
                  }
                }
                JOINT LeftFinger0
                {
                  OFFSET -1.42 -1.8761 1.4223
                  CHANNELS 6 Xposition Yposition Zposition Zrotation Xrotation Yrotation
                  JOINT LeftFinger01
                  {
                    OFFSET -1.1471 -3.4929 2.6334
                    CHANNELS 6 Xposition Yposition Zposition Zrotation Xrotation Yrotation
                    JOINT LeftFinger02
                    {
                      OFFSET -0.823 -2.3 1.6571
                      CHANNELS 6 Xposition Yposition Zposition Zrotation Xrotation Yrotation
                      End Site
                      {
                        OFFSET -0.5822 -1.6914 1.1582
                      }
                    }
                  }
                }
              }
            }
          }
        }
        JOINT RightCollar
        {
          OFFSET -2.2603 21.606 7.4023
          CHANNELS 6 Xposition Yposition Zposition Zrotation Xrotation Yrotation
          JOINT RightShoulder
          {
            OFFSET -13.5187 -1.1334 -5.0155
            CHANNELS 6 Xposition Yposition Zposition Zrotation Xrotation Yrotation
            JOINT RightElbow
            {
              OFFSET 0.0994 -28.0499 -0.2431
              CHANNELS 6 Xposition Yposition Zposition Zrotation Xrotation Yrotation
              JOINT RightWrist
              {
                OFFSET -0.0679 -23.3996 -0.1402
                CHANNELS 6 Xposition Yposition Zposition Zrotation Xrotation Yrotation
                JOINT RightFinger1
                {
                  OFFSET -0.7932 -9.0691 2.5189
                  CHANNELS 6 Xposition Yposition Zposition Zrotation Xrotation Yrotation
                  JOINT RightFinger11
                  {
                    OFFSET 0.8272 -3.3923 0.5977
                    CHANNELS 6 Xposition Yposition Zposition Zrotation Xrotation Yrotation
                    JOINT RightFinger12
                    {
                      OFFSET 0.565 -2.3158 0.4082
                      CHANNELS 6 Xposition Yposition Zposition Zrotation Xrotation Yrotation
                      End Site
                      {
                        OFFSET 0.4919 -1.6479 0.2673
                      }
                    }
                  }
                }
                JOINT RightFinger2
                {
                  OFFSET -0.916 -9.2044 0.2193
                  CHANNELS 6 Xposition Yposition Zposition Zrotation Xrotation Yrotation
                  JOINT RightFinger21
                  {
                    OFFSET -0.0117 -4.1944 -0.0248
                    CHANNELS 6 Xposition Yposition Zposition Zrotation Xrotation Yrotation
                    JOINT RightFinger22
                    {
                      OFFSET -0.0071 -2.3249 -0.0142
                      CHANNELS 6 Xposition Yposition Zposition Zrotation Xrotation Yrotation
                      End Site
                      {
                        OFFSET 0.1475 -2.0882 0.0028
                      }
                    }
                  }
                }
                JOINT RightFinger3
                {
                  OFFSET -0.6113 -8.7231 -2.0637
                  CHANNELS 6 Xposition Yposition Zposition Zrotation Xrotation Yrotation
                  JOINT RightFinger31
                  {
                    OFFSET 0.1927 -3.8059 -0.2383
                    CHANNELS 6 Xposition Yposition Zposition Zrotation Xrotation Yrotation
                    JOINT RightFinger32
                    {
                      OFFSET 0.1091 -2.1688 -0.1362
                      CHANNELS 6 Xposition Yposition Zposition Zrotation Xrotation Yrotation
                      End Site
                      {
                        OFFSET 0.2358 -1.9176 -0.0906
                      }
                    }
                  }
                }
                JOINT RightFinger4
                {
                  OFFSET 0.6151 -8.0947 -3.564
                  CHANNELS 6 Xposition Yposition Zposition Zrotation Xrotation Yrotation
                  JOINT RightFinger41
                  {
                    OFFSET 0.4882 -2.341 -0.6462
                    CHANNELS 6 Xposition Yposition Zposition Zrotation Xrotation Yrotation
                    JOINT RightFinger42
                    {
                      OFFSET 0.3574 -1.7166 -0.4742
                      CHANNELS 6 Xposition Yposition Zposition Zrotation Xrotation Yrotation
                      End Site
                      {
                        OFFSET 0.4187 -1.5237 -0.3496
                      }
                    }
                  }
                }
                JOINT RightFinger0
                {
                  OFFSET 1.4199 -1.8761 1.4221
                  CHANNELS 6 Xposition Yposition Zposition Zrotation Xrotation Yrotation
                  JOINT RightFinger01
                  {
                    OFFSET 1.1472 -3.4929 2.6336
                    CHANNELS 6 Xposition Yposition Zposition Zrotation Xrotation Yrotation
                    JOINT RightFinger02
                    {
                      OFFSET 0.8229 -2.3 1.6571
                      CHANNELS 6 Xposition Yposition Zposition Zrotation Xrotation Yrotation
                      End Site
                      {
                        OFFSET 0.5822 -1.6914 1.1582
                      }
                    }
                  }
                }
              }
            }
          }
        }
      }
    }
  }
  JOINT RightHip
  {
    OFFSET -9.412 3.9771 -0.7758
    CHANNELS 6 Xposition Yposition Zposition Zrotation Xrotation Yrotation
    JOINT RightKnee
    {
      OFFSET -0.7531 -40.938 0
      CHANNELS 6 Xposition Yposition Zposition Zrotation Xrotation Yrotation
      JOINT RightAnkle
      {
        OFFSET 0 -40.1986 0
        CHANNELS 6 Xposition Yposition Zposition Zrotation Xrotation Yrotation
        JOINT RightToe
        {
          OFFSET 0 -4.4182 9.239
          CHANNELS 6 Xposition Yposition Zposition Zrotation Xrotation Yrotation
          End Site
          {
            OFFSET 0 0 6.1981
          }
        }
      }
    }
  }
  JOINT LeftHip
  {
    OFFSET 9.4119 3.9773 -0.7758
    CHANNELS 6 Xposition Yposition Zposition Zrotation Xrotation Yrotation
    JOINT LeftKnee
    {
      OFFSET 0.7532 -40.9383 0
      CHANNELS 6 Xposition Yposition Zposition Zrotation Xrotation Yrotation
      JOINT LeftAnkle
      {
        OFFSET 0 -40.1986 0
        CHANNELS 6 Xposition Yposition Zposition Zrotation Xrotation Yrotation
        JOINT LeftToe
        {
          OFFSET 0 -4.4182 9.239
          CHANNELS 6 Xposition Yposition Zposition Zrotation Xrotation Yrotation
          End Site
          {
            OFFSET 0 0 6.1981
          }
        }
      }
    }
  }
}
MOTION
Frames:	4
Frame Time:	0.0333333
-38.1881 7.96523 13.9128 89.9983 1.99552 92.0096 0 8.7983 -4.7612 -0.611684 7.94662 -0.139806 0 8.0291 0.4195 -1.22146 15.8949 -0.195806 0 9.9351 -2.2114 -1.22146 15.8949 -0.195802 0 22.3885 -0.4656 -6.48633e-006 -17.0006 -6.62091e-006 -0.0001 12.643 3.4389 1.80265e-005 -39.0019 1.10695e-005 2.2603 21.606 7.4023 3.84673 12.8886 -52.9672 13.5163 -1.1332 -5.0146 43.5675 51.0463 24.155 -0.0995 -28.05 -0.2431 64.1198 -69.145 76.735 0.0679 -23.3996 -0.1402 -0.428726 19.5488 -1.30242 0.7932 -9.069 2.5189 1.88679e-006 9.59965e-007 -2.10074e-006 -0.8272 -3.3923 0.5977 3.77358e-006 -2.01167e-006 -4.20148e-006 -0.5649 -2.3158 0.4082 8.23679e-006 -1.33635e-006 1.36017e-006 0.9159 -9.2044 0.2193 1.88679e-006 9.59965e-007 -2.10074e-006 0.0117 -4.1944 -0.0248 -0.0128566 0.00232849 8.54476e-005 0.0071 -2.3249 -0.0142 7.14262e-006 7.80625e-007 -1.30235e-006 0.6113 -8.7231 -2.0637 1.88679e-006 9.59965e-007 -2.10074e-006 -0.1927 -3.8059 -0.2383 -0.0160125 0.00299596 0.000855941 -0.1091 -2.1688 -0.1362 1.23589e-030 2.22639e-014 -3.18055e-015 -0.6151 -8.0947 -3.5641 1.88679e-006 9.59965e-007 -2.10074e-006 -0.4882 -2.341 -0.6462 -0.0126178 0.00313062 0.0028306 -0.3575 -1.7167 -0.4742 -2.98068e-006 -2.54736e-006 -5.62413e-007 -1.42 -1.8761 1.4223 1.88679e-006 9.59965e-007 -2.10074e-006 -1.1471 -3.4929 2.6334 3.77358e-006 -2.01167e-006 -4.20148e-006 -0.823 -2.3 1.6571 8.23679e-006 -1.33635e-006 1.36017e-006 -2.2603 21.606 7.4023 5.16364 20.7783 30.9945 -13.5187 -1.1334 -5.0155 -26.2261 49.9509 -33.7459 0.0994 -28.0499 -0.2431 33.4352 -77.6941 24.3515 -0.0679 -23.3996 -0.1402 16.4177 -1.20531 -0.39654 -0.7932 -9.0691 2.5189 -7.95139e-016 2.78299e-015 3.18055e-015 0.8272 -3.3923 0.5977 -7.95139e-016 1.19271e-015 3.18055e-015 0.565 -2.3158 0.4082 -2.38542e-015 3.97569e-015 6.36111e-015 -0.916 -9.2044 0.2193 -7.95139e-016 2.78299e-015 3.18055e-015 -0.0117 -4.1944 -0.0248 0.012984 0.00231849 -8.49125e-005 -0.0071 -2.3249 -0.0142 7.95139e-016 -2.78299e-015 3.18055e-015 -0.6113 -8.7231 -2.0637 -7.95139e-016 2.78299e-015 3.18055e-015 0.1927 -3.8059 -0.2383 0.0163167 0.00302975 -0.000880819 0.1091 -2.1688 -0.1362 -1.83192e-006 -1.0786e-006 7.4429e-006 0.6151 -8.0947 -3.564 -7.95139e-016 2.78299e-015 3.18055e-015 0.4882 -2.341 -0.6462 0.0145767 0.00367861 -0.00325685 0.3574 -1.7166 -0.4742 1.32417e-031 2.38542e-015 -3.18055e-015 1.4199 -1.8761 1.4221 -7.95139e-016 2.78299e-015 3.18055e-015 1.1472 -3.4929 2.6336 -7.95139e-016 1.19271e-015 3.18055e-015 0.8229 -2.3 1.6571 -2.38542e-015 3.97569e-015 6.36111e-015 -9.412 3.9771 -0.7758 -46.0532 -27.8415 -72.7455 -0.7531 -40.938 7.10543e-015 -84.1617 49.1544 107.873 7.10543e-015 -40.1986 0 9.13362 9.37662 -25.8243 3.55271e-015 -4.4182 9.239 -5.29706e-006 -2.21378e-006 2.41861e-006 9.4119 3.9773 -0.7758 1.4195 -0.721452 -1.22126 0.7532 -40.9383 0 -1.42648 3.84864 1.21544 -2.22045e-016 -40.1986 -8.88178e-016 -16.9855 4.97872 30.0277 0 -4.4182 9.239 -1.08313e-005 -1.36829e-005 -5.6092e-006 
-38.188 7.96544 13.9125 89.9983 1.99554 92.0096 1.77636e-015 8.7983 -4.7612 -0.609789 8.05569 -0.140826 0 8.0291 0.4195 -1.2177 16.1121 -0.196965 0 9.9351 -2.2114 -1.2177 16.1123 -0.196957 0 22.3885 -0.4656 3.86503e-006 -17.0005 -9.97887e-007 -0.0001 12.643 3.4389 5.42593e-006 -39.0018 5.76891e-006 2.2603 21.606 7.4023 4.15383 12.6893 -53.0696 13.5163 -1.1332 -5.0146 43.2323 51.1466 24.3973 -0.0995 -28.05 -0.2431 66.9599 -68.9443 79.4005 0.0679 -23.3996 -0.1402 -0.295024 19.3933 -1.03604 0.7932 -9.069 2.5189 -3.18055e-015 -9.54166e-015 -6.36111e-015 -0.8272 -3.3923 0.5977 6.36111e-015 0 -3.18055e-015 -0.5649 -2.3158 0.4082 6.36111e-015 0 -3.18055e-015 0.915899 -9.2044 0.2193 -3.18055e-015 -9.54166e-015 -6.36111e-015 0.0117 -4.1944 -0.0248 -0.0127532 0.00230613 8.06072e-005 0.0071 -2.3249 -0.0142 -6.36111e-015 3.18055e-015 -3.18055e-015 0.6113 -8.7231 -2.0637 -3.18055e-015 -9.54166e-015 -6.36111e-015 -0.1927 -3.8059 -0.2383 -0.0160286 0.00297692 0.000849214 -0.1091 -2.1688 -0.1362 3.18055e-015 -6.36111e-015 -3.18055e-015 -0.6151 -8.0947 -3.5641 -3.18055e-015 -9.54166e-015 -6.36111e-015 -0.4882 -2.341 -0.6462 -0.0125506 0.00310929 0.00281862 -0.3575 -1.7167 -0.4742 3.53113e-031 6.36111e-015 -3.18055e-015 -1.42 -1.8761 1.4223 -3.18055e-015 -9.54166e-015 -6.36111e-015 -1.1471 -3.4929 2.6334 6.36111e-015 0 -3.18055e-015 -0.823 -2.3 1.6571 6.36111e-015 0 -3.18055e-015 -2.2603 21.606 7.4023 5.07236 20.6843 31.2468 -13.5187 -1.1334 -5.0155 -26.2257 49.9513 -33.7461 0.0994 -28.0499 -0.2431 33.4361 -77.6945 24.3526 -0.0679 -23.3996 -0.1402 16.1626 -1.49223 -0.590712 -0.7932 -9.0691 2.5189 -1.32417e-031 -7.95139e-016 -9.54166e-015 0.8272 -3.3923 0.5977 1.06494e-005 1.21336e-005 -5.79184e-007 0.565 -2.3158 0.4082 -9.96302e-006 -8.36128e-006 -2.38391e-006 -0.916 -9.2044 0.2193 -1.32417e-031 -7.95139e-016 -9.54166e-015 -0.0117 -4.1944 -0.0248 0.0129685 0.00231044 -8.49567e-005 -0.0071 -2.3249 -0.0142 -7.95139e-016 0 -0 -0.6113 -8.7231 -2.0637 -1.32417e-031 -7.95139e-016 -9.54166e-015 0.1927 -3.8059 -0.2383 0.0162601 0.00301898 -0.00086662 0.1091 -2.1688 -0.1362 -2.38542e-015 1.59028e-015 3.18055e-015 0.6151 -8.0947 -3.564 -1.32417e-031 -7.95139e-016 -9.54166e-015 0.4882 -2.341 -0.6462 0.0145846 0.00368514 -0.00325704 0.3574 -1.7166 -0.4742 3.32097e-006 1.70922e-006 7.94846e-007 1.4199 -1.8761 1.4221 -1.32417e-031 -7.95139e-016 -9.54166e-015 1.1472 -3.4929 2.6336 1.06494e-005 1.21336e-005 -5.79184e-007 0.8229 -2.3 1.6571 -9.96302e-006 -8.36128e-006 -2.38391e-006 -9.412 3.9771 -0.7758 -45.6615 -28.0542 -72.1562 -0.7531 -40.938 -7.10543e-015 -84.163 49.1545 107.877 0 -40.1986 -7.10543e-015 9.57567 9.14566 -26.2338 -7.10543e-015 -4.4182 9.239 2.64748e-006 -5.24207e-007 -1.20965e-006 9.4119 3.9773 -0.7758 1.419 -0.73525 -1.22124 0.7532 -40.9383 0 -1.42654 3.8773 1.21459 0 -40.1986 0 -16.9853 4.9641 30.0245 -8.88178e-016 -4.4182 9.239 1.59028e-015 -4.77083e-015 -0 
-38.188 7.96564 13.9123 89.9985 1.99555 92.0096 -1.77636e-015 8.7983 -4.7612 -0.60804 8.15376 -0.14168 0 8.0291 0.4195 -1.2143 16.308 -0.197999 0 9.9351 -2.2114 -1.2143 16.3082 -0.198006 0 22.3885 -0.4656 -5.00512e-006 -17.0006 -5.42833e-006 -0.0001 12.643 3.4389 -1.43758e-005 -39.002 -1.15716e-005 2.2603 21.606 7.4023 4.42977 12.5092 -53.1607 13.5163 -1.1332 -5.0146 42.9294 51.2362 24.6168 -0.0995 -28.05 -0.2431 69.4683 -68.7214 81.7514 0.0679 -23.3996 -0.1402 -0.174071 19.2539 -0.796156 0.7932 -9.069 2.5189 -9.54166e-015 -3.18055e-014 -3.18055e-015 -0.8272 -3.3923 0.5977 -9.54166e-015 -2.54444e-014 -6.36111e-015 -0.5649 -2.3158 0.4082 -6.36111e-015 -2.54444e-014 -0 0.9159 -9.2044 0.2193 -9.54166e-015 -3.18055e-014 -3.18055e-015 0.0117 -4.1944 -0.0248 -0.0127812 0.00231081 8.05304e-005 0.0071 -2.3249 -0.0142 1.27222e-014 -3.18055e-015 -6.36111e-015 0.6113 -8.7231 -2.0637 -9.54166e-015 -3.18055e-014 -3.18055e-015 -0.1927 -3.8059 -0.2383 -0.0160247 0.00299362 0.000857853 -0.1091 -2.1688 -0.1362 3.71706e-006 1.76048e-006 -4.28725e-006 -0.6151 -8.0947 -3.5641 -9.54166e-015 -3.18055e-014 -3.18055e-015 -0.4882 -2.341 -0.6462 -0.0125924 0.00311972 0.00282134 -0.3575 -1.7167 -0.4742 1.27222e-014 -3.18055e-015 -0 -1.42 -1.8761 1.4223 -9.54166e-015 -3.18055e-014 -3.18055e-015 -1.1471 -3.4929 2.6334 -9.54166e-015 -2.54444e-014 -6.36111e-015 -0.823 -2.3 1.6571 -6.36111e-015 -2.54444e-014 -0 -2.2603 21.606 7.4023 4.99061 20.5993 31.4736 -13.5187 -1.1334 -5.0155 -26.2262 49.9508 -33.7457 0.0994 -28.0499 -0.2431 33.4347 -77.694 24.3511 -0.0679 -23.3996 -0.1402 15.9319 -1.74973 -0.766695 -0.7932 -9.0691 2.5189 -7.95139e-016 -1.19271e-015 -6.36111e-015 0.8272 -3.3923 0.5977 -2.91725e-006 -1.50629e-006 -2.29957e-006 0.565 -2.3158 0.4082 2.57299e-006 6.10611e-006 3.78022e-006 -0.916 -9.2044 0.2193 -7.95139e-016 -1.19271e-015 -6.36111e-015 -0.0117 -4.1944 -0.0248 0.012992 0.00231819 -8.75542e-005 -0.0071 -2.3249 -0.0142 -6.2384e-006 -6.04586e-006 -3.0964e-006 -0.6113 -8.7231 -2.0637 -7.95139e-016 -1.19271e-015 -6.36111e-015 0.1927 -3.8059 -0.2383 0.0163624 0.00304006 -0.000872104 0.1091 -2.1688 -0.1362 -7.95139e-016 7.95139e-016 -0 0.6151 -8.0947 -3.564 -7.95139e-016 -1.19271e-015 -6.36111e-015 0.4882 -2.341 -0.6462 0.0146342 0.00369293 -0.00327179 0.3574 -1.7166 -0.4742 6.31022e-007 -8.15719e-006 -2.93924e-006 1.4199 -1.8761 1.4221 -7.95139e-016 -1.19271e-015 -6.36111e-015 1.1472 -3.4929 2.6336 -2.91725e-006 -1.50629e-006 -2.29957e-006 0.8229 -2.3 1.6571 2.57299e-006 6.10611e-006 3.78022e-006 -9.412 3.9771 -0.7758 -45.3059 -28.243 -71.6233 -0.7531 -40.938 0 -84.1643 49.1545 107.881 0 -40.1986 -7.10543e-015 9.9721 8.93469 -26.6006 -3.55271e-015 -4.4182 9.239 5.29302e-006 -1.28041e-006 -2.42001e-006 9.4119 3.9773 -0.7758 1.41896 -0.730011 -1.22113 0.7532 -40.9383 -8.88178e-016 -1.42653 3.87225 1.21437 0 -40.1986 -8.88179e-016 -16.9851 4.96413 30.0245 -4.44089e-016 -4.4182 9.239 1.59028e-015 2.8625e-014 6.36111e-015 
-38.1879 7.96584 13.912 89.9984 1.9956 92.0096 0 8.7983 -4.7612 -0.606317 8.25148 -0.142622 0 8.0291 0.4195 -1.21087 16.504 -0.199054 -1.77636e-015 9.9351 -2.2114 -1.21088 16.504 -0.19905 0 22.3885 -0.4656 1.73791e-005 -17.0006 9.24144e-006 -0.0001 12.643 3.4389 7.58002e-006 -39.0019 6.4697e-006 2.2603 21.606 7.4023 4.70527 12.3287 -53.2509 13.5163 -1.1332 -5.0146 42.6253 51.325 24.8375 -0.0995 -28.05 -0.2431 71.9252 -68.4616 84.0505 0.0679 -23.3996 -0.1402 -0.0526209 19.115 -0.556104 0.7932 -9.069 2.5189 3.18055e-015 -9.54166e-015 -6.36111e-015 -0.8272 -3.3923 0.5977 6.42533e-006 -8.6871e-006 3.20572e-006 -0.5649 -2.3158 0.4082 3.18055e-015 3.18055e-015 3.18055e-015 0.9159 -9.2044 0.2193 3.18055e-015 -9.54166e-015 -6.36111e-015 0.0117 -4.1944 -0.0248 -0.0127833 0.00231617 8.6196e-005 0.0071 -2.3249 -0.0142 1.27222e-014 -3.18055e-015 -6.36111e-015 0.6113 -8.7231 -2.0637 3.18055e-015 -9.54166e-015 -6.36111e-015 -0.1927 -3.8059 -0.2383 -0.016092 0.00300227 0.000859664 -0.1091 -2.1688 -0.1362 -1.13473e-005 6.12451e-006 -1.50391e-006 -0.6151 -8.0947 -3.5641 3.18055e-015 -9.54166e-015 -6.36111e-015 -0.4882 -2.341 -0.6462 -0.0126393 0.00312787 0.00283639 -0.3575 -1.7167 -0.4742 3.82943e-006 6.12028e-006 2.91599e-006 -1.42 -1.8761 1.4223 3.18055e-015 -9.54166e-015 -6.36111e-015 -1.1471 -3.4929 2.6334 6.42533e-006 -8.6871e-006 3.20572e-006 -0.823 -2.3 1.6571 3.18055e-015 3.18055e-015 3.18055e-015 -2.2603 21.606 7.4023 4.90926 20.514 31.7002 -13.5187 -1.1334 -5.0155 -26.2259 49.951 -33.7459 0.0994 -28.0499 -0.2431 33.4355 -77.6942 24.3518 -0.0679 -23.3996 -0.1402 15.7004 -2.00657 -0.943827 -0.7932 -9.06911 2.5189 -7.95139e-016 3.18055e-015 -0 0.8272 -3.3923 0.5977 5.14326e-006 1.29281e-006 7.56736e-006 0.565 -2.3158 0.4082 -6.62086e-032 -1.19271e-015 -3.18055e-015 -0.916 -9.2044 0.2193 -7.95139e-016 3.18055e-015 -0 -0.0117 -4.1944 -0.0248 0.0129467 0.00231089 -8.17427e-005 -0.0071 -2.3249 -0.0142 0 7.95139e-016 -0 -0.6113 -8.7231 -2.0637 -7.95139e-016 3.18055e-015 -0 0.1927 -3.8059 -0.2383 0.0163578 0.00304091 -0.000871905 0.1091 -2.1688 -0.1362 -2.22644e-006 -4.19278e-006 -5.26356e-006 0.6151 -8.0947 -3.564 -7.95139e-016 3.18055e-015 -0 0.4882 -2.341 -0.6462 0.0146023 0.00368475 -0.00325585 0.3574 -1.7166 -0.4742 -2.38542e-015 2.78299e-015 9.54166e-015 1.4199 -1.8761 1.4221 -7.95139e-016 3.18055e-015 -0 1.1472 -3.4929 2.6336 5.14326e-006 1.29281e-006 7.56736e-006 0.8229 -2.3 1.6571 -6.62086e-032 -1.19271e-015 -3.18055e-015 -9.412 3.9771 -0.7758 -44.9479 -28.429 -71.0884 -0.7531 -40.938 0 -84.1655 49.1546 107.885 0 -40.1986 0 10.367 8.7211 -26.9659 0 -4.4182 9.239 1.85116e-006 2.78189e-006 8.74347e-007 9.4119 3.9773 -0.7758 1.41874 -0.731435 -1.22113 0.7532 -40.9383 8.88178e-016 -1.42654 3.87461 1.21434 -4.44089e-016 -40.1986 8.88179e-016 -16.9849 4.96311 30.0243 -4.44089e-016 -4.4182 9.239 -1.93393e-006 -6.79532e-006 -5.38032e-006 
